<?xml version="1.0" ?><svg baseProfile="basic" id="Layer_1" version="1.1" viewBox="0 0 112 88" xml:space="preserve" xmlns="http://www.w3.org/2000/svg" xmlns:xlink="http://www.w3.org/1999/xlink"><g><g><polygon fill="#3399CC" opacity="0.6" points="88,4 64,8 64,32 112,56 112,32   "/><path d="M88,5.2L111,32v22.5l-46-23V9L88,5.2 M88,4L64,8v24l48,24V32L88,4L88,4z" fill="#FFFFFF"/><polygon fill="#FFFFFF" points="112,33 64,9 65,8.5 112,32   "/><polygon fill="#FFFFFF" points="94,46 93,45.5 93,23.5 94,24   "/><polygon fill="#FFFFFF" points="103,50.5 102,50 102,28 103,28.5   "/><polygon fill="#FFFFFF" points="74,36 73,35.5 73,13.5 74,14   "/><polygon fill="#FFFFFF" points="83,40.5 82,40 82,18 83,18.5   "/><path d="M83,18.5v22l10,5v-22L83,18.5z M92,44l-8-4V20l8,4V44z" opacity="0.15"/><path d="M74,14v22l8,4V18L74,14z M81,38.5l-6-3v-20l6,3V38.5z" opacity="0.15"/><path d="M65,9.5v22l8,4v-22L65,9.5z M72,34l-6-3V11l6,3V34z" opacity="0.15"/><path d="M94,24v22l8,4V28L94,24z M101,48.5l-6-3v-20l6,3V48.5z" opacity="0.15"/><path d="M103,28.5v22l8,4v-22L103,28.5z M110,53l-6-3V30l6,3V53z" opacity="0.15"/><path d="M110,31" fill="#FFFFFF"/><path d="M88,5L66,9l44,22L88,5z M88,6.2l18.8,22.2L69.2,9.6L88,6.2z" opacity="0.15"/></g><g><polygon fill="#3399CC" opacity="0.6" points="112,56 48,88 48,64 112,32   "/><path d="M111,33.5v22l-62,31v-22L111,33.5 M112,32L48,64v24l64-32V32L112,32z" fill="#FFFFFF"/><polygon fill="#FFFFFF" points="58,82 57,82.5 57,60.5 58,60   "/><polygon fill="#FFFFFF" points="67,77.5 66,78 66,56 67,55.5   "/><polygon fill="#FFFFFF" points="76,73 75,73.5 75,51.5 76,51   "/><polygon fill="#FFFFFF" points="85,68.5 84,69 84,47 85,46.5   "/><path d="M58,60v22l8-4V56L58,60z M65,77.5l-6,3v-20l6-3V77.5z" opacity="0.15"/><path d="M67,55.5v22l8-4v-22L67,55.5z M74,73l-6,3V56l6-3V73z" opacity="0.15"/><path d="M76,51v22l8-4V47L76,51z M83,68.5l-6,3v-20l6-3V68.5z" opacity="0.15"/><polygon fill="#FFFFFF" points="94,64 93,64.5 93,42.5 94,42   "/><path d="M85,46.5v22l8-4v-22L85,46.5z M92,64l-6,3V47l6-3V64z" opacity="0.15"/><polygon fill="#FFFFFF" points="103,59.5 102,60 102,38 103,37.5   "/><path d="M94,42v22l8-4V38L94,42z M101,59.5l-6,3v-20l6-3V59.5z" opacity="0.15"/><path d="M103,37.5v22l8-4v-22L103,37.5z M110,55l-6,3V38l6-3V55z" opacity="0.15"/><path d="M49,64.5v22l8-4v-22L49,64.5z M56,82l-6,3V65l6-3V82z" opacity="0.15"/><polygon opacity="0.39" points="112,56 48,88 48,64 112,32   "/></g><g><polygon fill="#3399CC" opacity="0.6" points="64,32 0,64 0,40 64,8   "/><path d="M63,9.5v22l-62,31v-22L63,9.5 M64,8L0,40v24l64-32V8L64,8z" fill="#FFFFFF"/><polygon fill="#FFFFFF" points="10,58 9,58.5 9,36.5 10,36   "/><polygon fill="#FFFFFF" points="19,53.5 18,54 18,32 19,31.5   "/><polygon fill="#FFFFFF" points="28,49 27,49.5 27,27.5 28,27   "/><polygon fill="#FFFFFF" points="37,44.5 36,45 36,23 37,22.5   "/><path d="M10,36v22l8-4V32L10,36z M17,53.5l-6,3v-20l6-3V53.5z" opacity="0.15"/><path d="M19,31.5v22l8-4v-22L19,31.5z M26,49l-6,3V32l6-3V49z" opacity="0.15"/><path d="M28,27v22l8-4V23L28,27z M35,44.5l-6,3v-20l6-3V44.5z" opacity="0.15"/><polygon fill="#FFFFFF" points="46,40 45,40.5 45,18.5 46,18   "/><path d="M37,22.5v22l8-4v-22L37,22.5z M44,40l-6,3V23l6-3V40z" opacity="0.15"/><polygon fill="#FFFFFF" points="55,35.5 54,36 54,14 55,13.5   "/><path d="M46,18v22l8-4V14L46,18z M53,35.5l-6,3v-20l6-3V35.5z" opacity="0.15"/><path d="M55,13.5v22l8-4v-22L55,13.5z M62,31l-6,3V14l6-3V31z" opacity="0.15"/><path d="M1,40.5v22l8-4v-22L1,40.5z M8,58l-6,3V41l6-3V58z" opacity="0.15"/></g><g><polygon fill="#3399CC" opacity="0.6" points="24,36 0,40 0,64 48,88 48,64   "/><path d="M24,37.2L47,64v22.5l-46-23V41L24,37.2 M24,36L0,40v24l48,24V64L24,36L24,36z" fill="#FFFFFF"/><polygon fill="#FFFFFF" points="48,65 0,41 1,40.5 48,64   "/><polygon fill="#FFFFFF" points="30,78 29,77.5 29,55.5 30,56   "/><polygon fill="#FFFFFF" points="39,82.5 38,82 38,60 39,60.5   "/><polygon fill="#FFFFFF" points="10,68 9,67.5 9,45.5 10,46   "/><polygon fill="#FFFFFF" points="19,72.5 18,72 18,50 19,50.5   "/><path d="M19,50.5v22l10,5v-22L19,50.5z M28,76l-8-4V52l8,4V76z" opacity="0.2"/><path d="M10,46v22l8,4V50L10,46z M17,70.5l-6-3v-20l6,3V70.5z" opacity="0.15"/><path d="M1,41.5v22l8,4v-22L1,41.5z M8,66l-6-3V43l6,3V66z" opacity="0.15"/><path d="M30,56v22l8,4V60L30,56z M37,80.5l-6-3v-20l6,3V80.5z" opacity="0.15"/><path d="M39,60.5v22l8,4v-22L39,60.5z M46,85l-6-3V62l6,3V85z" opacity="0.15"/><polygon opacity="0.15" points="29,77.5 29,55.5 23,52.5   "/><path d="M46,63" fill="#FFFFFF"/><path d="M24,37L2,41l44,22L24,37z M24,38.2l18.8,22.2L5.2,41.6L24,38.2z" opacity="0.15"/><polygon opacity="0.06" points="24,36 0,40 0,64 48,88 48,64   "/></g><g><polygon fill="#3399CC" opacity="0.6" points="112,32 48,64 24,36 88,4   "/><g><path d="M33.7,32.2l-8.2,4.1l22.7,26.4l8.2-4.1L33.7,32.2z M27.2,36.6l6.3-3.2l21.3,24.9l-6.3,3.2L27.2,36.6z" opacity="0.15"/><path d="M34,31l-10,5l24,28l10-5L34,31z M25.6,36.3l8.2-4.1l22.7,26.4l-8.2,4.1L25.6,36.3z" fill="#FFFFFF"/></g><g><path d="M87.7,5.2l-8.2,4.1l22.7,26.4l8.2-4.1L87.7,5.2z M81.2,9.6l6.3-3.2l21.3,24.9l-6.3,3.2L81.2,9.6z" opacity="0.15"/><path d="M88,4L78,9l24,28l10-5L88,4z M79.6,9.3l8.2-4.1l22.7,26.4l-8.2,4.1L79.6,9.3z" fill="#FFFFFF"/></g><g><path d="M69.7,14.2l-8.2,4.1l22.7,26.4l8.2-4.1L69.7,14.2z M63.2,18.6l6.3-3.2l21.3,24.9l-6.3,3.2L63.2,18.6z" opacity="0.15"/><path d="M70,13l-10,5l24,28l10-5L70,13z M61.6,18.3l8.2-4.1l22.7,26.4l-8.2,4.1L61.6,18.3z" fill="#FFFFFF"/></g><g><path d="M51.7,23.2l-8.2,4.1l22.7,26.4l8.2-4.1L51.7,23.2z M45.2,27.6l6.3-3.2l21.3,24.9l-6.3,3.2L45.2,27.6z" opacity="0.15"/><path d="M52,22l-10,5l24,28l10-5L52,22z M43.6,27.3l8.2-4.1l22.7,26.4l-8.2,4.1L43.6,27.3z" fill="#FFFFFF"/></g><g><path d="M42.7,27.7l-8.2,4.1l22.7,26.4l8.2-4.1L42.7,27.7z M36.2,32.1l6.3-3.2l21.3,24.9L57.5,57L36.2,32.1z" opacity="0.15"/><path d="M43,26.5l-10,5l24,28l10-5L43,26.5z M34.6,31.8l8.2-4.1l22.7,26.4l-8.2,4.1L34.6,31.8z" fill="#FFFFFF"/></g><g><path d="M78.7,9.7l-8.2,4.1l22.7,26.4l8.2-4.1L78.7,9.7z M72.2,14.1l6.3-3.2l21.3,24.9L93.5,39L72.2,14.1z" opacity="0.15"/><path d="M79,8.5l-10,5l24,28l10-5L79,8.5z M70.6,13.8l8.2-4.1l22.7,26.4l-8.2,4.1L70.6,13.8z" fill="#FFFFFF"/></g><g><path d="M60.7,18.7l-8.2,4.1l22.7,26.4l8.2-4.1L60.7,18.7z M54.2,23.1l6.3-3.2l21.3,24.9L75.5,48L54.2,23.1z" opacity="0.15"/><path d="M61,17.5l-10,5l24,28l10-5L61,17.5z M52.6,22.8l8.2-4.1l22.7,26.4l-8.2,4.1L52.6,22.8z" fill="#FFFFFF"/></g><polygon opacity="0.29" points="112,32 48,64 24,36 88,4   "/></g><g><polygon fill="#3399CC" opacity="0.6" points="24,36 0,40 64,8 88,4   "/><g><path d="M10.2,35.5l-7,3.5l20.6-3.4l7-3.5L10.2,35.5z M23.7,35L6.4,37.9l3.9-2l17.3-2.9L23.7,35z" opacity="0.15"/><path d="M10,35L0,40l24-4l10-5L10,35z M23.8,35.5L3.2,39l7-3.5L30.8,32L23.8,35.5z" fill="#FFFFFF"/></g><g><path d="M64.2,8.5l-7,3.5l20.6-3.4l7-3.5L64.2,8.5z M77.7,8l-17.3,2.9l3.9-2l17.3-2.9L77.7,8z" opacity="0.15"/><path d="M64,8l-10,5l24-4l10-5L64,8z M77.8,8.5L57.2,12l7-3.5L84.8,5L77.8,8.5z" fill="#FFFFFF"/></g><g><path d="M28.2,26.5l-7,3.5l20.6-3.4l7-3.5L28.2,26.5z M41.7,26l-17.3,2.9l3.9-2l17.3-2.9L41.7,26z" opacity="0.15"/><path d="M28,26l-10,5l24-4l10-5L28,26z M41.8,26.5L21.2,30l7-3.5L48.8,23L41.8,26.5z" fill="#FFFFFF"/></g><g><path d="M46.2,17.5l-7,3.5l20.6-3.4l7-3.5L46.2,17.5z M59.7,17l-17.3,2.9l3.9-2l17.3-2.9L59.7,17z" opacity="0.15"/><path d="M46,17l-10,5l24-4l10-5L46,17z M59.8,17.5L39.2,21l7-3.5L66.8,14L59.8,17.5z" fill="#FFFFFF"/></g><g><path d="M19.7,30.7l-7,3.5l20.6-3.4l7-3.5L19.7,30.7z M33.2,30.3l-17.3,2.9l3.9-2l17.3-2.9L33.2,30.3z" opacity="0.15"/><path d="M19.5,30.3l-10,5l24-4l10-5L19.5,30.3z M33.3,30.8l-20.6,3.4l7-3.5l20.6-3.4L33.3,30.8z" fill="#FFFFFF"/></g><g><path d="M37.7,21.7l-7,3.5l20.6-3.4l7-3.5L37.7,21.7z M51.2,21.3l-17.3,2.9l3.9-2l17.3-2.9L51.2,21.3z" opacity="0.15"/><path d="M37.5,21.3l-10,5l24-4l10-5L37.5,21.3z M51.3,21.8l-20.6,3.4l7-3.5l20.6-3.4L51.3,21.8z" fill="#FFFFFF"/></g><g><path d="M55.7,12.7l-7,3.5l20.6-3.4l7-3.5L55.7,12.7z M69.2,12.3l-17.3,2.9l3.9-2l17.3-2.9L69.2,12.3z" opacity="0.15"/><path d="M55.5,12.3l-10,5l24-4l10-5L55.5,12.3z M69.3,12.8l-20.6,3.4l7-3.5l20.6-3.4L69.3,12.8z" fill="#FFFFFF"/></g><polygon opacity="0.11" points="24,36 0,40 64,8 88,4   "/></g></g></svg>